<svg xmlns="http://www.w3.org/2000/svg" viewBox="0 0 64 64">
  <!-- Background rounded square in brand color (#0EA5E9 ≈ brand-500) -->
  <rect x="4" y="4" width="56" height="56" rx="14" fill="#0EA5E9" />

  <!-- Minimal stethoscope icon to match navbar logo (white on brand background) -->
  <path
    d="M24 18a2 2 0 0 0-2 2v9.5a7 7 0 0 0 14 0V20a2 2 0 0 0-4 0v9.5a3 3 0 0 1-6 0V20a2 2 0 0 0-2-2zm19 16a5 5 0 0 0-5 5v4a4 4 0 1 0 3 0v-4a2 2 0 0 1 4 0v1a2 2 0 0 0 4 0v-1a5 5 0 0 0-5-5zm-5 12a1.5 1.5 0 1 1 0-3 1.5 1.5 0 0 1 0 3z"
    fill="#FFFFFF"
  />
</svg>
